# xmcd
#
# Track frame offsets:
#	150
#	11985
#	24483
#	37072
#	49906
#	66943
#	78435
#	88570
#	99483
#	109571
#	121065
#	129586
#	143676
#	156724
#	170600
#	192050
#	206887
#	219723
#	234784
#	250499
#	267979
#	284363
#	298204
#	310662
#	322289
#
# Disc length: 4461 seconds
#
# Revision: 1
# Processed by: cddbd v1.5.2PL0 Copyright (c) Steve Scherf et al.
# Submitted via: audiograbber 1.83.01
#
DISCID=7e116b19
DTITLE=Johnny Cash - The legen of Johnny Cash
DYEAR=1900
DGENRE=
TTITLE0=Ring of fire
TTITLE1=I walk the line
TTITLE2=Jackson
TTITLE3=Folsom prision blues
TTITLE4=Boy named Sue
TTITLE5=Big River
TTITLE6=Get Rythm
TTITLE7=Cry Cry Cry
TTITLE8=Hey Porter
TTITLE9=Thing called love
TTITLE10=Guess things happen that why
TTITLE11=San Quentin
TTITLE12=Man in Black
TTITLE13=Highwayman
TTITLE14=Wanderer
TTITLE15=I've been everywhere
TTITLE16=Rush cage
TTITLE17=Personal Jesus
TTITLE18=Give my love to Rose
TTITLE19=One
TTITLE20=Hurt
TTITLE21=It ain't me babe
TTITLE22=Jackson
TTITLE23=Long legged guitar picki'n man
TTITLE24=Oh, what a good thing we had
EXTD=
EXTT0=
EXTT1=
EXTT2=
EXTT3=
EXTT4=
EXTT5=
EXTT6=
EXTT7=
EXTT8=
EXTT9=
EXTT10=
EXTT11=
EXTT12=
EXTT13=
EXTT14=
EXTT15=
EXTT16=
EXTT17=
EXTT18=
EXTT19=
EXTT20=
EXTT21=
EXTT22=
EXTT23=
EXTT24=
PLAYORDER=
